<svg viewBox="0 0 1024.5 3293.25" xmlns="http://www.w3.org/2000/svg" aria-hidden="true">
  <path
    id="about-me-route"
    transform="matrix(0.749634, 0, 0, 0.749634, 0, 124.885088)"
    fill="none"
    stroke="currentColor"
    stroke-width="4"
    stroke-linecap="round"
    stroke-linejoin="miter"
    d="M 2.000976 1.99794 L 100.528209 1.99794 C 126.660749 1.99794 151.719849 12.378004 170.197614 30.855768 C 188.675378 49.333533 199.055442 74.397843 199.055442 100.525173 L 199.055442 251.880261 C 199.055442 307.11033 243.827284 351.882172 299.057352 351.882172 L 1100.531682 351.882172 C 1155.75654 351.882172 1200.528382 396.654013 1200.528382 451.878871 L 1200.528382 839.865024 C 1200.528382 895.095093 1155.75654 939.866935 1100.531682 939.866935 L 314.10115 939.866935 C 258.871081 939.866935 214.099239 984.633565 214.099239 1039.863634 L 214.099239 1517.581062 C 214.099239 1572.80592 258.871081 1617.577762 314.10115 1617.577762 L 1184.515362 1617.577762 C 1239.74022 1617.577762 1284.512061 1662.349604 1284.512061 1717.579672 L 1284.512061 2222.190428 C 1284.512061 2277.420497 1239.74022 2322.192339 1184.515362 2322.192339 L 314.10115 2322.192339 C 258.871081 2322.192339 214.099239 2366.964181 214.099239 2422.194249 L 214.099239 2897.050907 C 214.099239 2952.280975 258.871081 2997.052817 314.10115 2997.052817 L 1184.515362 2997.052817 C 1239.74022 2997.052817 1284.512061 3041.824659 1284.512061 3097.054728 L 1284.512061 3314.082479 C 1284.512061 3369.312548 1239.74022 3414.08439 1184.515362 3414.08439 L 314.10115 3414.08439 C 258.871081 3414.08439 214.099239 3458.856231 214.099239 3514.0863 L 214.099239 3592.47871 C 214.099239 3647.708779 258.871081 3692.480621 314.10115 3692.480621 L 1585.935151 3692.480621 "
  />
</svg>